HIERARCHY
ROOT Hips
{
	OFFSET 0.000000 88.474243 0.000000
	CHANNELS 6 Xposition Yposition Zposition Zrotation Yrotation Xrotation 
	JOINT Hips_Spine
	{
		OFFSET 0.000000 0.000000 0.000000
		CHANNELS 3 Zrotation Yrotation Xrotation
		JOINT Spine
		{
			OFFSET 0.005100 8.711998 -0.691000
			CHANNELS 3 Zrotation Yrotation Xrotation
			JOINT Spine1
			{
				OFFSET -0.009200 8.660301 -1.275000
				CHANNELS 3 Zrotation Yrotation Xrotation
				JOINT Spine2
				{
					OFFSET 0.006300 9.852501 -1.857000
					CHANNELS 3 Zrotation Yrotation Xrotation
					JOINT Spine2_Neck
					{
						OFFSET 0.000000 0.000000 0.000000
						CHANNELS 3 Zrotation Yrotation Xrotation
						JOINT Neck
						{
							OFFSET 0.016300 11.420799 -0.263300
							CHANNELS 3 Zrotation Yrotation Xrotation
							End Site #name: Head
							{
								OFFSET -0.019200 9.262405 2.362500
							}
						}
					}
					JOINT Spine2_LeftShoulder
					{
						OFFSET 0.000000 0.000000 0.000000
						CHANNELS 3 Zrotation Yrotation Xrotation
						JOINT LeftShoulder
						{
							OFFSET 5.616900 6.732201 -0.345700
							CHANNELS 3 Zrotation Yrotation Xrotation
							JOINT LeftArm
							{
								OFFSET 10.664888 -0.183372 -2.440700
								CHANNELS 3 Zrotation Yrotation Xrotation
								JOINT LeftForeArm
								{
									OFFSET 27.459126 0.000000 0.000000
									CHANNELS 3 Zrotation Yrotation Xrotation
									End Site #name: LeftHand
									{
										OFFSET 21.306858 0.000000 0.000000
									}
								}
							}
						}
					}
					JOINT Spine2_RightShoulder
					{
						OFFSET 0.000000 0.000000 0.000000
						CHANNELS 3 Zrotation Yrotation Xrotation
						JOINT RightShoulder
						{
							OFFSET -5.580300 6.737503 -0.344400
							CHANNELS 3 Zrotation Yrotation Xrotation
							JOINT RightArm
							{
								OFFSET -10.679335 -0.188484 -2.383900
								CHANNELS 3 Zrotation Yrotation Xrotation
								JOINT RightForeArm
								{
									OFFSET -27.503529 0.000000 0.000000
									CHANNELS 3 Zrotation Yrotation Xrotation
									End Site #name: RightHand
									{
										OFFSET -21.306808 0.000000 0.000000
									}
								}
							}
						}
					}
				}
			}
		}
	}
	JOINT Hips_LeftUpLeg
	{
		OFFSET 0.000000 0.000000 0.000000
		CHANNELS 3 Zrotation Yrotation Xrotation
		JOINT LeftUpLeg
		{
			OFFSET 6.857700 -6.739601 0.312100
			CHANNELS 3 Zrotation Yrotation Xrotation
			JOINT LeftLeg
			{
				OFFSET -0.367590 -34.731552 -4.572400
				CHANNELS 3 Zrotation Yrotation Xrotation
				End Site #name: LeftFoot
				{
					OFFSET 0.367590 -34.656704 -6.067400
				}
			}
		}
	}
	JOINT Hips_RightUpLeg
	{
		OFFSET 0.000000 0.000000 0.000000
		CHANNELS 3 Zrotation Yrotation Xrotation
		JOINT RightUpLeg
		{
			OFFSET -6.876100 -6.733299 0.301000
			CHANNELS 3 Zrotation Yrotation Xrotation
			JOINT RightLeg
			{
				OFFSET 0.347353 -34.795158 -4.515900
				CHANNELS 3 Zrotation Yrotation Xrotation
				End Site #name: RightFoot
				{
					OFFSET -0.347353 -34.589367 -6.070300
				}
			}
		}
	}
}
MOTION
Frames: 10
Frame Time: 0.041667
-0.102961 0.081485 0.133397 -3.141039 1.201181 -6.112766 -0.000000 0.000000 0.000000 -0.241667 0.966253 5.637023 -0.788921 1.012897 9.021930 0.000000 0.000000 0.000000 -1.578123 0.821344 9.402983 -0.398410 -3.154875 3.696631 -1.385747 0.907752 9.058182 -2.425486 -2.164734 0.308987 -68.320181 -23.110353 16.128123 29.078182 -86.076237 -29.688650 -0.858615 1.604640 8.972923 -4.330927 2.262048 1.965543 75.864713 5.102785 6.610744 97.913272 89.530346 99.221447 0.000000 -0.000000 0.000000 6.570840 0.099170 -17.776206 -0.898890 0.972350 33.020679 0.000000 0.000000 0.000000 -4.499865 -3.015939 -15.297579 -1.470165 -2.684064 26.672822 
-0.080819 0.048854 0.242769 -3.549387 -1.674696 -5.242120 -0.000000 0.000000 0.000000 -0.503968 0.546569 5.196521 -1.490897 1.293769 9.836383 0.000000 0.000000 0.000000 -1.846968 1.261790 10.079824 -0.949671 -3.728894 4.289951 -1.900987 1.201245 10.320750 -0.485511 1.007861 -0.141291 -70.082289 -22.766188 27.353599 175.961941 -84.492870 -175.782503 -1.351496 1.120281 9.569128 -5.457458 -1.720891 1.341945 84.020872 -4.816950 4.709051 -175.540599 82.650223 -175.235184 0.000000 -0.000000 0.000000 7.312564 1.328746 -21.784758 0.185934 1.779168 34.035855 0.000000 0.000000 0.000000 -3.170440 -2.901844 -15.082221 0.105015 -1.571085 25.729162 
0.120375 -0.048244 0.153794 -3.926517 -5.260029 -3.613094 -0.000000 0.000000 0.000000 -0.776445 0.667087 4.875760 -1.954383 1.438390 10.621040 0.000000 0.000000 0.000000 -2.318453 1.450460 11.234183 -1.172954 -3.480716 4.144067 -1.926553 1.443346 10.613313 -0.117804 1.203440 -0.338391 -71.064718 -18.450344 32.093469 -179.590819 -81.049068 179.205773 -1.628014 1.297395 9.993141 -3.508333 -2.776043 0.968853 81.444853 -9.203388 7.367837 -169.634250 85.895916 -169.145114 0.000000 -0.000000 0.000000 7.014449 1.197451 -22.435269 -0.515237 0.618923 37.259541 0.000000 0.000000 0.000000 -3.720661 -3.384413 -16.339790 0.559995 -1.355934 26.036327 
0.298250 -0.116715 0.124514 -4.285265 -6.839436 -2.394873 -0.000000 0.000000 0.000000 -0.759838 0.737983 4.659725 -2.073040 1.683726 10.724453 0.000000 0.000000 0.000000 -2.175062 1.593282 10.940833 -1.639487 -3.696372 4.793476 -1.900562 1.633678 10.612865 0.805743 0.590569 -0.075480 -70.463732 -16.057605 32.134560 -179.329632 -80.167811 178.928692 -1.764223 1.495389 10.000335 -4.104306 -2.492643 1.208036 80.124829 -10.496757 8.996618 -167.511132 85.012121 -167.754983 0.000000 -0.000000 0.000000 6.755144 0.975853 -22.513446 -1.251238 0.110868 37.005288 0.000000 0.000000 0.000000 -3.595055 -3.309759 -17.366993 0.806907 -0.837671 26.034370 
0.421960 -0.131071 0.186709 -4.904187 -6.858352 -1.743937 -0.000000 -0.000000 0.000000 -0.626041 0.745281 4.823674 -2.086130 1.732442 10.312676 0.000000 0.000000 0.000000 -2.060617 1.612561 10.368504 -1.804189 -3.831693 4.766633 -1.852601 1.659022 10.386454 1.444771 0.604215 0.145962 -70.952386 -15.683521 31.852995 -178.944739 -81.854172 178.516482 -1.745623 1.560980 9.967507 -4.733130 -2.563248 1.408205 80.501954 -10.167006 9.256443 -162.790718 85.412846 -163.340267 -0.000000 -0.000000 0.000000 6.711754 1.333923 -22.383854 -1.544571 0.015412 35.846520 0.000000 -0.000000 0.000000 -3.273098 -3.325783 -17.881665 0.936981 -0.475545 25.572711 
0.533112 -0.127933 0.276808 -5.302776 -6.410825 -1.675778 -0.000000 -0.000000 0.000000 -0.595848 0.653290 4.929246 -2.055930 1.678297 9.905549 0.000000 0.000000 0.000000 -2.002387 1.543010 9.940645 -1.588226 -3.819274 4.826439 -1.817191 1.604396 10.135398 1.847868 0.847213 0.261524 -71.499434 -16.409760 30.725033 -178.290901 -83.200593 177.866166 -1.685704 1.544703 9.888171 -4.690579 -2.689626 1.476449 80.837401 -9.255821 8.852179 -157.768741 86.140226 -158.378877 -0.000000 -0.000000 0.000000 6.755993 1.635817 -22.332608 -1.571670 0.174318 35.146592 -0.000000 -0.000000 0.000000 -2.938684 -3.282359 -17.676852 0.808798 -0.474636 24.834161 
0.638771 -0.116633 0.377630 -5.389366 -6.060943 -1.815804 -0.000000 -0.000000 0.000000 -0.610849 0.551712 4.815196 -1.994051 1.610195 9.728650 0.000000 0.000000 0.000000 -1.972168 1.473248 9.735155 -1.161141 -3.669428 4.870224 -1.796370 1.540180 9.946395 1.986094 1.022844 0.309812 -71.771244 -17.580154 29.512849 -178.003516 -83.680294 177.649157 -1.600812 1.504429 9.820210 -4.080420 -2.804883 1.407627 80.749238 -8.677038 8.182943 -158.181619 86.272196 -158.782258 -0.000000 -0.000000 0.000000 6.605146 1.599773 -22.033543 -1.451449 0.327863 34.392734 -0.000000 -0.000000 0.000000 -2.802081 -3.100226 -17.200297 0.673700 -0.586523 24.161263 
0.746761 -0.103533 0.466384 -5.379656 -6.063609 -1.848197 -0.000000 -0.000000 0.000000 -0.605039 0.538420 4.727751 -1.937621 1.566656 9.648912 0.000000 0.000000 0.000000 -1.948042 1.425212 9.660795 -0.767835 -3.262129 5.002749 -1.759730 1.501905 9.858574 2.005508 1.101972 0.298694 -71.897937 -18.643206 28.576683 -177.980241 -84.075196 177.688593 -1.530183 1.474476 9.790715 -3.621790 -2.910438 1.325888 80.497069 -8.497227 7.518223 -159.604376 86.333027 -160.131177 -0.000000 -0.000000 0.000000 6.505174 1.501278 -21.815996 -1.300489 0.426038 33.992996 -0.000000 -0.000000 0.000000 -2.778408 -2.938021 -16.860888 0.554033 -0.712414 23.747986 
0.857194 -0.089008 0.535037 -5.292168 -6.303993 -1.778602 -0.000000 -0.000000 0.000000 -0.586107 0.527705 4.635411 -1.854697 1.557069 9.675004 0.000000 0.000000 0.000000 -1.895013 1.411219 9.691598 -0.409028 -2.788716 4.978370 -1.713454 1.487749 9.818358 1.945853 1.045000 0.278883 -71.975273 -19.367257 28.255139 -177.847953 -84.330910 177.618474 -1.483798 1.477975 9.799620 -3.457943 -2.762657 1.264882 80.007034 -8.375216 7.207942 -162.083796 86.184512 -162.526792 -0.000000 -0.000000 0.000000 6.407654 1.416734 -21.703787 -1.182820 0.479009 33.913419 -0.000000 -0.000000 0.000000 -2.864498 -2.752771 -16.613606 0.493159 -0.770397 23.698271 
0.975312 -0.074059 0.581005 -5.211583 -6.585631 -1.690158 -0.000000 -0.000000 0.000000 -0.551122 0.533211 4.632620 -1.769856 1.566918 9.733193 0.000000 0.000000 0.000000 -1.839389 1.430863 9.782183 -0.085009 -2.224922 4.751639 -1.662142 1.483891 9.794644 1.895418 0.925784 0.264264 -72.130987 -19.601152 28.270171 -177.877929 -84.464410 177.743960 -1.448742 1.492503 9.808911 -3.458561 -2.435256 1.235893 79.604483 -8.242665 7.183959 -164.817697 85.793483 -165.216553 -0.000000 -0.000000 0.000000 6.329766 1.374216 -21.666596 -1.122096 0.496233 33.965253 -0.000000 -0.000000 0.000000 -3.054966 -2.610578 -16.463114 0.445428 -0.779689 23.808731 
